<svg width="28" height="18" viewBox="0 0 28 18" fill="none" xmlns="http://www.w3.org/2000/svg">
<path d="M20.9357 17.7593C19.7943 17.7593 18.7813 17.4597 17.8967 16.8605C17.0121 16.2612 16.313 15.448 15.7994 14.4207C15.2858 13.3935 15.029 12.2521 15.029 10.9965C15.029 8.94199 15.6995 6.93027 17.0407 4.96136C18.4104 2.96391 20.3365 1.32314 22.819 0.0390625L27.6129 2.60722C25.9864 3.4062 24.6025 4.33359 23.4611 5.38938C22.3482 6.44518 21.592 7.68645 21.1925 9.1132C22.5337 9.22735 23.618 9.6411 24.4455 10.3545C25.3016 11.0393 25.7296 11.9952 25.7296 13.2222C25.7296 14.4493 25.2873 15.5193 24.4027 16.4324C23.5467 17.317 22.391 17.7593 20.9357 17.7593ZM6.63966 17.7593C5.49826 17.7593 4.48527 17.4597 3.60068 16.8605C2.71609 16.2612 2.01699 15.448 1.50336 14.4207C0.989725 13.3935 0.73291 12.2521 0.73291 10.9965C0.73291 8.94199 1.40348 6.93027 2.74463 4.96136C4.11431 2.96391 6.04043 1.32314 8.52297 0.0390625L13.3169 2.60722C11.6904 3.4062 10.3064 4.33359 9.16501 5.38938C8.05215 6.44518 7.29597 7.68645 6.89648 9.1132C8.23762 9.22735 9.32196 9.6411 10.1495 10.3545C11.0055 11.0393 11.4335 11.9952 11.4335 13.2222C11.4335 14.4493 10.9913 15.5193 10.1067 16.4324C9.25062 17.317 8.09495 17.7593 6.63966 17.7593Z" fill="#076F28"/>
</svg>
